<mxfile host="Electron" modified="2023-09-18T06:49:00.757Z" agent="Mozilla/5.0 (Windows NT 10.0; Win64; x64) AppleWebKit/537.36 (KHTML, like Gecko) draw.io/21.7.5 Chrome/114.0.5735.289 Electron/25.8.1 Safari/537.36" etag="gY7dHUenDEh9k_X9XAVH" version="21.7.5" type="device">
  <diagram name="Page-1" id="929967ad-93f9-6ef4-fab6-5d389245f69c">
    <mxGraphModel dx="1434" dy="836" grid="1" gridSize="10" guides="1" tooltips="1" connect="1" arrows="1" fold="1" page="1" pageScale="1.5" pageWidth="1169" pageHeight="826" background="none" math="0" shadow="0">
      <root>
        <mxCell id="0" style=";html=1;" />
        <mxCell id="1" style=";html=1;" parent="0" />
        <mxCell id="Z6IjwmgCavdGaCXbELWS-8" value="" style="rounded=1;whiteSpace=wrap;html=1;" parent="1" vertex="1">
          <mxGeometry x="480" y="840" width="320" height="120" as="geometry" />
        </mxCell>
        <mxCell id="Z6IjwmgCavdGaCXbELWS-5" value="" style="rounded=1;whiteSpace=wrap;html=1;" parent="1" vertex="1">
          <mxGeometry x="480" y="410" width="320" height="340" as="geometry" />
        </mxCell>
        <mxCell id="1672d66443f91eb5-11" value="&lt;div style=&quot;font-size: 18px;&quot;&gt;&lt;font style=&quot;font-size: 18px;&quot;&gt;&lt;b&gt;Spark&lt;/b&gt;&lt;/font&gt;&lt;/div&gt;&lt;div style=&quot;font-size: 18px;&quot;&gt;&lt;font style=&quot;font-size: 18px;&quot;&gt;&lt;b&gt;Driver&lt;/b&gt;&lt;/font&gt;&lt;/div&gt;&lt;div style=&quot;font-size: 18px;&quot;&gt;&lt;font style=&quot;font-size: 18px;&quot;&gt;&lt;b&gt;&lt;br&gt;&lt;/b&gt;&lt;/font&gt;&lt;/div&gt;" style="shape=note;size=15;align=left;spacingLeft=10;html=1;whiteSpace=wrap;strokeWidth=1;fontSize=12;" parent="1" vertex="1">
          <mxGeometry x="500" y="550" width="100" height="70" as="geometry" />
        </mxCell>
        <mxCell id="1672d66443f91eb5-12" value="&lt;div style=&quot;font-size: 18px;&quot;&gt;&lt;font style=&quot;font-size: 18px;&quot;&gt;&lt;b&gt;ClickHouse&lt;/b&gt;&lt;/font&gt;&lt;/div&gt;&lt;div style=&quot;font-size: 18px;&quot;&gt;&lt;font style=&quot;font-size: 18px;&quot;&gt;&lt;b&gt;&lt;br&gt;&lt;/b&gt;&lt;/font&gt;&lt;/div&gt;" style="shape=note;size=15;align=left;spacingLeft=10;html=1;whiteSpace=wrap;strokeWidth=1;fontSize=12;" parent="1" vertex="1">
          <mxGeometry x="877" y="515" width="200" height="115" as="geometry" />
        </mxCell>
        <mxCell id="Z6IjwmgCavdGaCXbELWS-1" value="&lt;div style=&quot;font-size: 18px;&quot;&gt;&lt;font style=&quot;font-size: 18px;&quot;&gt;&lt;b&gt;Spark&lt;/b&gt;&lt;/font&gt;&lt;/div&gt;&lt;div style=&quot;font-size: 18px;&quot;&gt;&lt;font style=&quot;font-size: 18px;&quot;&gt;&lt;b&gt;Excutor&lt;br&gt;&lt;/b&gt;&lt;/font&gt;&lt;/div&gt;" style="shape=note;size=15;align=left;spacingLeft=10;html=1;whiteSpace=wrap;strokeWidth=1;fontSize=12;" parent="1" vertex="1">
          <mxGeometry x="680" y="445" width="100" height="70" as="geometry" />
        </mxCell>
        <mxCell id="Z6IjwmgCavdGaCXbELWS-2" value="&lt;div style=&quot;font-size: 18px;&quot;&gt;&lt;font style=&quot;font-size: 18px;&quot;&gt;&lt;b&gt;Spark&lt;/b&gt;&lt;/font&gt;&lt;/div&gt;&lt;div style=&quot;font-size: 18px;&quot;&gt;&lt;font style=&quot;font-size: 18px;&quot;&gt;&lt;b&gt;Excutor&lt;br&gt;&lt;/b&gt;&lt;/font&gt;&lt;/div&gt;" style="shape=note;size=15;align=left;spacingLeft=10;html=1;whiteSpace=wrap;strokeWidth=1;fontSize=12;" parent="1" vertex="1">
          <mxGeometry x="680" y="545" width="100" height="70" as="geometry" />
        </mxCell>
        <mxCell id="Z6IjwmgCavdGaCXbELWS-3" value="&lt;div style=&quot;font-size: 18px;&quot;&gt;&lt;font style=&quot;font-size: 18px;&quot;&gt;&lt;b&gt;Spark&lt;/b&gt;&lt;/font&gt;&lt;/div&gt;&lt;div style=&quot;font-size: 18px;&quot;&gt;&lt;font style=&quot;font-size: 18px;&quot;&gt;&lt;b&gt;Excutor&lt;br&gt;&lt;/b&gt;&lt;/font&gt;&lt;/div&gt;" style="shape=note;size=15;align=left;spacingLeft=10;html=1;whiteSpace=wrap;strokeWidth=1;fontSize=12;" parent="1" vertex="1">
          <mxGeometry x="670" y="640" width="100" height="70" as="geometry" />
        </mxCell>
        <mxCell id="Z6IjwmgCavdGaCXbELWS-6" value="&lt;font style=&quot;font-size: 18px;&quot;&gt;Iceberg&lt;/font&gt;" style="shape=note;size=15;align=left;spacingLeft=10;html=1;whiteSpace=wrap;strokeWidth=1;fontSize=12;" parent="1" vertex="1">
          <mxGeometry x="490" y="880" width="120" height="50" as="geometry" />
        </mxCell>
        <mxCell id="Z6IjwmgCavdGaCXbELWS-7" value="&lt;font style=&quot;font-size: 18px;&quot;&gt;Hive&lt;/font&gt;" style="shape=note;size=15;align=left;spacingLeft=10;html=1;whiteSpace=wrap;strokeWidth=1;fontSize=12;" parent="1" vertex="1">
          <mxGeometry x="650" y="880" width="120" height="50" as="geometry" />
        </mxCell>
        <mxCell id="Z6IjwmgCavdGaCXbELWS-14" value="" style="shape=flexArrow;endArrow=classic;html=1;rounded=0;exitX=0.169;exitY=0.025;exitDx=0;exitDy=0;exitPerimeter=0;entryX=0.172;entryY=0.988;entryDx=0;entryDy=0;entryPerimeter=0;" parent="1" source="Z6IjwmgCavdGaCXbELWS-8" target="Z6IjwmgCavdGaCXbELWS-5" edge="1">
          <mxGeometry width="50" height="50" relative="1" as="geometry">
            <mxPoint x="740" y="690" as="sourcePoint" />
            <mxPoint x="790" y="640" as="targetPoint" />
            <Array as="points" />
          </mxGeometry>
        </mxCell>
        <mxCell id="Z6IjwmgCavdGaCXbELWS-16" value="数据源" style="edgeLabel;html=1;align=center;verticalAlign=middle;resizable=0;points=[];" parent="Z6IjwmgCavdGaCXbELWS-14" vertex="1" connectable="0">
          <mxGeometry x="0.0302" relative="1" as="geometry">
            <mxPoint as="offset" />
          </mxGeometry>
        </mxCell>
        <mxCell id="Z6IjwmgCavdGaCXbELWS-22" value="" style="shape=flexArrow;endArrow=classic;html=1;rounded=0;entryX=0.772;entryY=0.008;entryDx=0;entryDy=0;entryPerimeter=0;exitX=0.772;exitY=0.985;exitDx=0;exitDy=0;exitPerimeter=0;" parent="1" source="Z6IjwmgCavdGaCXbELWS-5" target="Z6IjwmgCavdGaCXbELWS-8" edge="1">
          <mxGeometry width="50" height="50" relative="1" as="geometry">
            <mxPoint x="727" y="760" as="sourcePoint" />
            <mxPoint x="760" y="840" as="targetPoint" />
          </mxGeometry>
        </mxCell>
        <mxCell id="Z6IjwmgCavdGaCXbELWS-29" value="Text" style="edgeLabel;html=1;align=center;verticalAlign=middle;resizable=0;points=[];" parent="Z6IjwmgCavdGaCXbELWS-22" vertex="1" connectable="0">
          <mxGeometry x="-0.0194" relative="1" as="geometry">
            <mxPoint as="offset" />
          </mxGeometry>
        </mxCell>
        <mxCell id="Z6IjwmgCavdGaCXbELWS-32" value="&lt;div&gt;冷备份&lt;/div&gt;" style="edgeLabel;html=1;align=center;verticalAlign=middle;resizable=0;points=[];" parent="Z6IjwmgCavdGaCXbELWS-22" vertex="1" connectable="0">
          <mxGeometry x="-0.0194" y="5" relative="1" as="geometry">
            <mxPoint as="offset" />
          </mxGeometry>
        </mxCell>
        <mxCell id="Z6IjwmgCavdGaCXbELWS-37" value="" style="shape=flexArrow;endArrow=classic;html=1;rounded=0;entryX=0;entryY=0.5;entryDx=0;entryDy=0;entryPerimeter=0;" parent="1" source="Z6IjwmgCavdGaCXbELWS-5" target="1672d66443f91eb5-12" edge="1">
          <mxGeometry width="50" height="50" relative="1" as="geometry">
            <mxPoint x="810" y="570" as="sourcePoint" />
            <mxPoint x="870" y="560" as="targetPoint" />
          </mxGeometry>
        </mxCell>
        <mxCell id="Z6IjwmgCavdGaCXbELWS-38" value="" style="shape=flexArrow;endArrow=classic;html=1;rounded=0;width=10;endSize=5.67;" parent="1" source="1672d66443f91eb5-12" edge="1">
          <mxGeometry width="50" height="50" relative="1" as="geometry">
            <mxPoint x="1082" y="573" as="sourcePoint" />
            <mxPoint x="1140" y="573" as="targetPoint" />
          </mxGeometry>
        </mxCell>
      </root>
    </mxGraphModel>
  </diagram>
</mxfile>
